<?xml version="1.0" encoding="utf-8"?>
<!-- Generator: Adobe Illustrator 27.5.0, SVG Export Plug-In . SVG Version: 6.00 Build 0)  -->
<svg version="1.1" id="Layer_1" xmlns="http://www.w3.org/2000/svg" xmlns:xlink="http://www.w3.org/1999/xlink" x="0px" y="0px"
	 viewBox="0 0 2000 2000" style="enable-background:new 0 0 2000 2000;" xml:space="preserve">
<g>
	<path style="fill:#FFBF00;" d="M1514.006,691.12c89.654,110.221,158.797,300.076,95.128,478.638
		c-3.583,10.055-79.965,217.426-285.837,276.416c-187.704,53.783-365.678-49.389-371.224-80.557
		c-0.362-2.029-2.112-15.674-8.622-17.247c-7.045-1.7-15.764,11.676-17.247,13.797c-18.341,26.237-149.775,76.451-259.392,58.877
		c-134.101-21.498-235.421-145.452-276.414-251.286c-108.93-281.234,166.733-668.373,470.135-840.726
		c147.831-83.979,288.251-109.015,369.552-117.971c-12.309,57.36-19.633,137.91,13.882,217.937
		C1300.074,562.966,1411.73,565.384,1514.006,691.12z"/>
	<path style="fill:#FFA600;" d="M1514.006,691.12c-102.276-125.736-213.932-128.154-270.039-262.122
		c-31.896-76.163-26.79-152.752-15.614-209.421c-26.626,12.696-64.462,33.572-104.017,66.654
		c-84.048,70.295-122.915,151.428-158.434,227.621c-30.611,65.664-55.436,126.344-70.873,208.776
		c-25.399,135.639,4.288,258.252,42.167,387.922c22.242,76.145,18.398,158.074,7.222,238.3c5.677,2.662,7.314,14.847,7.655,16.766
		c5.546,31.168,183.52,134.34,371.224,80.557c205.872-58.99,282.254-266.361,285.837-276.416
		C1672.803,991.196,1603.66,801.341,1514.006,691.12z"/>
	<path style="fill:#F95600;" d="M1092.274,315.355c1.638,1.112-138.877,150.468-195.965,344.242
		c-41.92,142.292-28.365,272.938-9.488,362.958c-19.508-27.424-49.986-63.962-94.891-97.263
		c-85.244-63.214-177.285-81.236-179.639-75.504c-2.294,5.587,83.157,27.55,172.52,106.343
		c40.327,35.555,88.569,79.143,113.524,152.648c25.581,75.346,13.286,142.636,5.092,174.727
		c-42.079-5.562-98.218-17.454-158.942-45.073c-167.657-76.26-246.489-216.1-249.195-213.845
		c-2.696,2.25,72.244,144.383,234.712,234.712c67.274,37.402,130.531,55.478,177.097,64.927
		c-10.103,120.663,11.349,211.072,29.846,266.435c29.736,89,91.416,205.874,122.501,197.888
		c14.345-3.687,21.597-33.807,18.847-56.54c-4.532-37.478-36.964-60.791-50.257-72.245c-70.046-60.354-82.904-200.032-56.09-287.366
		c37.462-122.013,162.922-175.851,230.389-205.135c147.377-63.967,278.371-44.044,278.212-49.104
		c-0.164-5.216-139.616-31.29-289.734,22.723c-108.54,39.056-183.253,105.8-228.08,154.484c-1.665-24.98-2.384-60.266,2.372-102.007
		c15.849-139.098,80.083-241.16,120.988-294.164c94.481-122.427,207.003-167.786,205.174-170.547
		c-2.066-3.118-148.789,50.176-245.504,189.526c-58.518,84.318-75.716,166.982-96.434,163.26
		c-18.028-3.238-21.726-68.851-21.544-130.625c129.677-312.388,152.727-378.78,149.18-380.334
		c-7.676-3.367-129.258,301.705-163.277,290.837c-26.122-8.344-1.925-203.366,78.206-379.676
		c17.371-38.222,35.576-70.194,51.644-95.561C1068.95,345.961,1091.558,314.869,1092.274,315.355z"/>
</g>
</svg>
